# xmcd CD database file generated by Grip 3.2.0
# 
# Track frame offsets:
#       150
#       14266
#       26940
#       44993
#       61738
#       78753
#       95557
#       107328
#       126047
#       140552
#       159836
#       185691
#       205228
#       224034
# 
# Disc length: 3123 seconds
# 
# Revision: 1
# Processed by: cddbd v1.5.2PL0 Copyright (c) Steve Scherf et al.
# Submitted via: Grip 3.2.0
# 
DISCID=c60c310e
DTITLE=Rick Estrin and the Nightcats - Twisted
DYEAR=2009
DGENRE=Blues
TTITLE0=Big Time
TTITLE1=Back From The Dead
TTITLE2=U B U
TTITLE3=Walk All Day
TTITLE4=Catchin' Hell
TTITLE5=Earthquake
TTITLE6=P.A. Slim Is Back
TTITLE7=A Ton of Money
TTITLE8=Take It Slow
TTITLE9=I'm Takin' Out My In-Laws
TTITLE10=Cool Breeze
TTITLE11=You Can't Come Back
TTITLE12=Someone, Somewhere
TTITLE13=Bigfoot
EXTD=
EXTT0=
EXTT1=
EXTT2=
EXTT3=
EXTT4=
EXTT5=
EXTT6=
EXTT7=
EXTT8=
EXTT9=
EXTT10=
EXTT11=
EXTT12=
EXTT13=
PLAYORDER=
